<svg width="244" height="56" viewBox="0 0 244 56" fill="none" xmlns="http://www.w3.org/2000/svg">
<g style="mix-blend-mode:exclusion">
<path fill-rule="evenodd" clip-rule="evenodd" d="M10.2314 32.1265L7.86333 36.6129L7.90327 51.6628L0.203303 51.6835L0.0732635 2.68365L7.77324 2.66301L7.8299 24.0129L17.8532 2.63599L25.5532 2.61534L14.9012 24.484L25.6832 51.6152L17.7732 51.6364L10.2314 32.1265ZM36.5233 40.3161C36.528 42.0894 36.8929 43.3368 37.6182 44.0581C38.3435 44.7795 39.3127 45.1386 40.5261 45.1354C41.7394 45.1321 42.7068 44.7678 43.4282 44.0426C44.1496 43.3173 44.5079 42.068 44.5032 40.2947L44.433 13.8348C44.4283 12.0614 44.0633 10.8141 43.3381 10.0927C42.6128 9.37129 41.6435 9.01223 40.4302 9.01548C39.2169 9.01873 38.2495 9.38299 37.5281 10.1083C36.8067 10.8335 36.4483 12.0828 36.453 13.8562L36.5233 40.3161ZM28.7544 14.3668C28.7438 10.4001 29.7391 7.35248 31.7401 5.22377C33.7412 3.09505 36.6316 2.02564 40.4116 2.01551C44.1916 2.00537 47.0877 3.05927 49.1001 5.17722C51.1124 7.29518 52.1238 10.3374 52.1343 14.3041L52.2019 39.784C52.2124 43.7507 51.2172 46.7984 49.2162 48.9271C47.2151 51.0558 44.3246 52.1252 40.5446 52.1353C36.7646 52.1455 33.8685 51.0916 31.8562 48.9736C29.8439 46.8557 28.8325 43.8134 28.822 39.8467L28.7544 14.3668ZM64.7589 16.0203L64.8531 51.5102L57.9231 51.5287L57.7931 2.52891L67.453 2.50301L75.4408 31.8117L75.363 2.4818L82.223 2.46341L82.353 51.4632L74.443 51.4844L64.7589 16.0203ZM87.5942 14.2091C87.5836 10.2424 88.5205 7.19489 90.4049 5.06649C92.2893 2.93808 95.1214 1.86883 98.9014 1.8587C102.681 1.84856 105.519 2.90261 107.415 5.02088C109.31 7.13915 110.264 10.1816 110.274 14.1482L110.278 15.6882L102.998 15.7078L102.993 13.6778C102.988 11.9044 102.646 10.657 101.968 9.9355C101.289 9.21398 100.343 8.85486 99.13 8.85811C97.9167 8.86136 96.9726 9.22556 96.2979 9.95071C95.6231 10.6759 95.2881 11.9251 95.2928 13.6984C95.2973 15.3784 95.6745 16.8591 96.4246 18.1404C97.1747 19.4217 98.1112 20.6325 99.2343 21.7729C100.357 22.9132 101.562 24.0533 102.848 25.1932C104.135 26.3331 105.34 27.5782 106.463 28.9285C107.587 30.2789 108.524 31.8163 109.276 33.541C110.027 35.2657 110.405 37.2946 110.412 39.628C110.422 43.5946 109.462 46.6422 107.531 48.7707C105.6 50.8993 102.744 51.9686 98.9644 51.9787C95.1844 51.9888 92.3233 50.9349 90.381 48.8167C88.4387 46.6986 87.4623 43.6562 87.4518 39.6895L87.4438 36.6795L94.7238 36.66L94.733 40.16C94.7378 41.9333 95.1027 43.169 95.8279 43.8671C96.5531 44.5652 97.5223 44.9125 98.7357 44.9093C99.949 44.906 100.916 44.5535 101.638 43.8515C102.359 43.1496 102.718 41.912 102.713 40.1386C102.709 38.4586 102.331 36.978 101.581 35.6966C100.831 34.4153 99.8946 33.2045 98.7716 32.0642C97.6485 30.9238 96.4439 29.7837 95.1575 28.6438C93.8711 27.5039 92.6662 26.2588 91.5426 24.9085C90.419 23.5582 89.4816 22.0207 88.7303 20.296C87.9791 18.5714 87.6003 16.5424 87.5942 14.2091ZM113.273 2.38017L137.073 2.31636L137.091 9.31634L129.041 9.33792L129.153 51.3378L121.453 51.3584L121.341 9.35856L113.291 9.38014L113.273 2.38017ZM157.453 51.2619C157.358 50.9355 157.264 50.6324 157.17 50.3526C157.076 50.0729 156.994 49.7231 156.922 49.3033C156.851 48.8835 156.803 48.3469 156.778 47.6937C156.753 47.0404 156.739 46.2238 156.737 45.2438L156.716 37.5438C156.71 35.2571 156.309 33.6482 155.513 32.717C154.718 31.7858 153.433 31.3226 151.66 31.3273L149 31.3345L149.053 51.2844L141.353 51.305L141.223 2.30521L152.843 2.27406C156.856 2.2633 159.763 3.18883 161.565 5.05068C163.367 6.91253 164.272 9.73342 164.282 13.5134L164.293 17.3634C164.306 22.4034 162.635 25.7212 159.279 27.3169C161.241 28.105 162.586 29.3964 163.314 31.1911C164.042 32.9858 164.41 35.1665 164.417 37.7332L164.437 45.2931C164.44 46.5065 164.49 47.568 164.585 48.4777C164.681 49.3875 164.917 50.3085 165.293 51.2409L157.453 51.2619ZM148.941 9.28457L148.981 24.3345L151.991 24.3264C153.438 24.3226 154.569 23.9462 155.383 23.1973C156.198 22.4485 156.603 21.0941 156.597 19.1341L156.585 14.3041C156.58 12.5308 156.262 11.2483 155.629 10.4566C154.997 9.66499 154.005 9.27099 152.651 9.27462L148.941 9.28457ZM177.503 2.20797L177.603 40.0078C177.608 41.7812 177.973 43.0168 178.698 43.7149C179.423 44.413 180.392 44.7604 181.606 44.7571C182.819 44.7539 183.786 44.4013 184.508 43.6993C185.229 42.9974 185.588 41.7598 185.583 39.9864L185.483 2.18657L192.763 2.16706L192.862 39.4769C192.872 43.4436 191.912 46.4912 189.981 48.6197C188.05 50.7482 185.194 51.8175 181.414 51.8277C177.634 51.8378 174.773 50.7838 172.831 48.6657C170.889 46.5475 169.912 43.5052 169.902 39.5385L169.803 2.22861L177.503 2.20797ZM219.842 2.09446L243.642 2.03065L243.661 9.03062L235.611 9.05221L235.722 51.0521L228.022 51.0727L227.911 9.07285L219.861 9.09443L219.842 2.09446Z" fill="#1A1A1A"/>
</g>
<path fill-rule="evenodd" clip-rule="evenodd" d="M193.511 25.6686L213.444 0.48764L213.577 50.7422L193.511 25.6686Z" fill="#1A1A1A"/>
</svg>
